<?xml version="1.0" encoding="utf-8"?>
<!-- Generator: Adobe Illustrator 22.0.1, SVG Export Plug-In . SVG Version: 6.00 Build 0)  -->
<svg version="1.1" id="Capa_1" xmlns="http://www.w3.org/2000/svg" xmlns:xlink="http://www.w3.org/1999/xlink" x="0px" y="0px"
	 viewBox="0 0 59 59" style="enable-background:new 0 0 59 59;" xml:space="preserve">
<style type="text/css">
	.st0{fill:#2D3039;}
	.st1{fill:#E74C3D;}
	.st2{fill:#ECF0F1;}
	.st3{fill:#D1D4D2;}
	.st4{fill:#C03B2B;}
	.st5{fill:#556180;}
	.st6{fill:#FFFFFF;}
</style>
<g id="XMLID_66_">
	<path id="XMLID_117_" class="st0" d="M4,31H2.2C1,31,0,30,0,28.7v-5.6C0,21.9,1,21,2.2,21H4V31z"/>
	<path id="XMLID_116_" class="st1" d="M20.1,35.1L6.6,34.3c-1.5-0.1-2.6-1.3-2.6-2.8V20.4c0-1.3,1-2.3,2.3-2.4l13.7-0.8L20.1,35.1
		L20.1,35.1z"/>
	<path id="XMLID_115_" class="st2" d="M42,48.1l-19.6-9.8c-1.4-0.7-2.3-2.2-2.3-3.7V17.6c0-1.5,0.8-3,2.2-3.7L41.9,3.4
		c2.8-1.5,6.2,0.5,6.2,3.7v37.2C48.1,47.4,44.8,49.5,42,48.1"/>
	<path id="XMLID_114_" class="st1" d="M49,21h-1v10h1c2.2,0,4-1.8,4-4v-2C53,22.8,51.2,21,49,21"/>
	<path id="XMLID_113_" class="st3" d="M56,33c-0.2,0-0.4-0.1-0.6-0.2c-0.4-0.3-0.6-0.9-0.2-1.4c0.6-0.8,1.9-2.9,1.8-5.4
		c0-2-0.7-3.8-1.8-5.5c-0.3-0.5-0.2-1.1,0.2-1.4c0.5-0.3,1.1-0.2,1.4,0.2c1.4,2,2.1,4.2,2.2,6.6c0.1,3.1-1.5,5.7-2.2,6.6
		C56.6,32.8,56.3,33,56,33"/>
	<path id="XMLID_112_" class="st4" d="M8.1,34.4V38h3c0.6,0,1,0.4,1,1c0,0.6-0.4,1-1,1h-3v2h3c0.6,0,1,0.4,1,1c0,0.6-0.4,1-1,1h-3v2
		h3c0.6,0,1,0.4,1,1c0,0.6-0.4,1-1,1h-3v2h3c0.6,0,1,0.4,1,1c0,0.6-0.4,1-1,1h-3v0.7c0,1.9,1.6,3.5,3.5,3.5s3.5-1.6,3.5-3.5V34.8
		L8.1,34.4z"/>
	<path id="XMLID_111_" class="st1" d="M12.1,51c0-0.6-0.4-1-1-1h-3v2h3C11.6,52,12.1,51.5,12.1,51"/>
	<path id="XMLID_110_" class="st1" d="M12.1,47c0-0.6-0.4-1-1-1h-3v2h3C11.6,48,12.1,47.5,12.1,47"/>
	<path id="XMLID_109_" class="st1" d="M12.1,43c0-0.6-0.4-1-1-1h-3v2h3C11.6,44,12.1,43.5,12.1,43"/>
	<path id="XMLID_108_" class="st1" d="M12.1,39c0-0.6-0.4-1-1-1h-3v2h3C11.6,40,12.1,39.5,12.1,39"/>
	<path id="XMLID_107_" class="st5" d="M41.8,3.4l-1.8,1v42.7l1.9,1c2.8,1.4,6.1-0.6,6.1-3.7V7.1C48,3.9,44.6,1.9,41.8,3.4"/>
	<path id="XMLID_106_" class="st6" d="M30.9,14.5c-0.2-0.5-0.8-0.7-1.3-0.5l-4.5,2.2c-1.3,0.7-2.1,2-2.1,3.5V22c0,0.6,0.4,1,1,1
		s1-0.4,1-1v-2.2c0-0.7,0.4-1.4,1-1.7l4.4-2.2C30.9,15.6,31.1,15,30.9,14.5"/>
	<path id="XMLID_105_" class="st6" d="M24,24c-0.6,0-1,0.4-1,1v2c0,0.6,0.4,1,1,1s1-0.4,1-1v-2C25,24.4,24.6,24,24,24"/>
</g>
</svg>
