<?xml version="1.0" encoding="utf-8"?>
<!-- Generator: Adobe Illustrator 22.0.1, SVG Export Plug-In . SVG Version: 6.00 Build 0)  -->
<svg version="1.1" id="Capa_1" xmlns="http://www.w3.org/2000/svg" xmlns:xlink="http://www.w3.org/1999/xlink" x="0px" y="0px"
	 viewBox="0 0 512 512" style="enable-background:new 0 0 512 512;" xml:space="preserve">
<style type="text/css">
	.st0{fill:#303C42;}
	.st1{fill:#BBDEFB;}
	.st2{opacity:0.1;enable-background:new    ;}
	.st3{fill:#1E88E5;}
	.st4{opacity:0.2;fill:#FFFFFF;enable-background:new    ;}
	.st5{fill:url(#SVGID_1_);}
</style>
<path class="st0" d="M501.3,245.3h-11.2c-5.5-120.9-102.6-218-223.5-223.5V10.7C266.7,4.8,261.9,0,256,0s-10.7,4.8-10.7,10.7v11.2
	c-120.9,5.5-218,102.6-223.5,223.5H10.7C4.8,245.3,0,250.1,0,256c0,5.9,4.8,10.7,10.7,10.7h11.2c5.5,120.9,102.6,218,223.5,223.5
	v11.2c0,5.9,4.8,10.7,10.7,10.7s10.7-4.8,10.7-10.7v-11.2c120.9-5.5,218-102.6,223.5-223.5h11.2c5.9,0,10.7-4.8,10.7-10.7
	C512,250.1,507.2,245.3,501.3,245.3z"/>
<path class="st1" d="M437.3,266.7h31.5c-5.4,109.1-93,196.7-202.1,202.1v-31.5c0-5.9-4.8-10.7-10.7-10.7s-10.7,4.8-10.7,10.7v31.5
	c-109.1-5.4-196.7-93-202.1-202.1h31.5c5.9,0,10.7-4.8,10.7-10.7c0-5.9-4.8-10.7-10.7-10.7H43.2c5.4-109.1,93-196.7,202.1-202.1
	v31.5c0,5.9,4.8,10.7,10.7,10.7s10.7-4.8,10.7-10.7V43.2c109.1,5.4,196.7,93,202.1,202.1h-31.5c-5.9,0-10.7,4.8-10.7,10.7
	C426.7,261.9,431.4,266.7,437.3,266.7z"/>
<path class="st2" d="M118.1,418.2c-30.4-36.9-48.8-84-48.8-135.6c0-5.4,0.4-10.7,0.8-16H43.3c0,0.5,0.1,1,0.1,1.5
	c2.3,40.2,15.7,77.4,37.2,108.6c0.2,0.2,0.3,0.5,0.5,0.7C91.6,392.6,104.1,406.3,118.1,418.2z"/>
<path class="st2" d="M245.3,43.2c-109.1,5.4-196.7,93-202.1,202.1h29.6c15.5-87.8,84.7-157,172.5-172.5L245.3,43.2L245.3,43.2z"/>
<path class="st2" d="M377.5,81.1c-0.2-0.2-0.5-0.3-0.7-0.5C345.6,59,308.3,45.6,268.2,43.4c-0.5,0-1-0.1-1.5-0.1v26.9
	c5.3-0.4,10.6-0.8,16-0.8c51.5,0,98.7,18.4,135.6,48.8C406.3,104.1,392.6,91.6,377.5,81.1z"/>
<circle class="st0" cx="256" cy="202.7" r="53.3"/>
<circle class="st3" cx="256" cy="202.7" r="32"/>
<path class="st2" d="M272.6,175.4c3,4.8,4.8,10.5,4.8,16.6c0,17.6-14.4,32-32,32c-6.1,0-11.7-1.8-16.6-4.8
	c5.6,9.2,15.7,15.4,27.2,15.4c17.6,0,32-14.4,32-32C288,191.1,281.8,181.1,272.6,175.4z"/>
<path id="SVGCleanerId_0" class="st0" d="M329,288.7c-17-10-43.5-22-73-22s-55.9,12-73,22c-14.2,8.4-23,24.7-23,42.5v6.8
	c0,13.6,10.2,24.7,22.9,24.7h146.3c12.6,0,22.9-11.1,22.9-24.7v-6.8C352,313.3,343.2,297.1,329,288.7z"/>
<g>
	<path id="SVGCleanerId_0_1_" class="st0" d="M329,288.7c-17-10-43.5-22-73-22s-55.9,12-73,22c-14.2,8.4-23,24.7-23,42.5v6.8
		c0,13.6,10.2,24.7,22.9,24.7h146.3c12.6,0,22.9-11.1,22.9-24.7v-6.8C352,313.3,343.2,297.1,329,288.7z"/>
</g>
<path class="st3" d="M330.7,338c0,2.2-1.3,3.3-1.5,3.3H182.9c-0.3,0-1.5-1.1-1.5-3.3v-6.8c0-10.2,4.9-19.6,12.5-24.1
	c14.7-8.7,37.5-19.1,62.1-19.1s47.4,10.4,62.1,19.1c7.6,4.5,12.5,14,12.5,24.1V338z"/>
<g>
	<path class="st4" d="M267.7,341.3h61.4c0.3,0,1.5-1.1,1.5-3.3v-6.8c0-10.2-4.9-19.6-12.5-24.1c-9.7-5.7-22.9-11.8-37.7-15.6
		c-8.5,10.9-13.7,24.3-13.7,39.2C266.7,334.3,267.2,337.8,267.7,341.3z"/>
	<path class="st4" d="M330.7,266.7c-11.3,0-21.7,3.2-30.9,8.3c11.3,4.1,21.3,9.1,29.2,13.7c14.2,8.4,23,24.7,23,42.5v6.8
		c0,13.6-10.2,24.7-22.9,24.7h-53.6c11.1,19,31.5,32,55.1,32c35.3,0,64-28.7,64-64S366,266.7,330.7,266.7z"/>
</g>
<linearGradient id="SVGID_1_" gradientUnits="userSpaceOnUse" x1="62.09" y1="-101.0402" x2="82.0037" y2="-91.7543" gradientTransform="matrix(21.3333 0 0 21.3333 -1280.9962 2312.4717)">
	<stop  offset="0" style="stop-color:#FFFFFF;stop-opacity:0.2"/>
	<stop  offset="1" style="stop-color:#FFFFFF;stop-opacity:0"/>
</linearGradient>
<path class="st5" d="M501.3,245.3h-11.2c-5.5-120.9-102.6-218-223.5-223.5V10.7C266.7,4.8,261.9,0,256,0s-10.7,4.8-10.7,10.7v11.2
	c-120.9,5.5-218,102.6-223.5,223.5H10.7C4.8,245.3,0,250.1,0,256c0,5.9,4.8,10.7,10.7,10.7h11.2c5.5,120.9,102.6,218,223.5,223.5
	v11.2c0,5.9,4.8,10.7,10.7,10.7s10.7-4.8,10.7-10.7v-11.2c120.9-5.5,218-102.6,223.5-223.5h11.2c5.9,0,10.7-4.8,10.7-10.7
	C512,250.1,507.2,245.3,501.3,245.3z"/>
</svg>
